<?xml version="1.0" encoding="utf-8"?>
<!-- Generator: Adobe Illustrator 26.2.1, SVG Export Plug-In . SVG Version: 6.00 Build 0)  -->
<svg version="1.1" id="Layer_1" xmlns="http://www.w3.org/2000/svg" xmlns:xlink="http://www.w3.org/1999/xlink" x="0px" y="0px"
	 viewBox="0 0 293.1 62.2" style="enable-background:new 0 0 293.1 62.2;" xml:space="preserve">
<style type="text/css">
	.st0{fill:#242424;}
	.st1{fill:#59C94F;}
	.st2{fill:#FFFFFF;}
</style>
<g>
	<path class="st0" d="M12.4,27.8c0,1.1,0.7,2,2.2,2.6c1.4,0.7,3.2,1.3,5.2,1.8c2.1,0.5,4.1,1.2,6.2,2c2.1,0.8,3.8,2.1,5.2,3.9
		c1.4,1.8,2.2,4.1,2.2,6.9c0,4.2-1.6,7.4-4.7,9.6c-3.1,2.2-7,3.4-11.7,3.4C8.7,58,3,54.8,0,48.3l9.1-5.1c1.2,3.5,3.8,5.3,8,5.3
		c3.7,0,5.6-1.2,5.6-3.5c0-1.1-0.7-2-2.2-2.6c-1.4-0.7-3.2-1.3-5.2-1.8c-2.1-0.5-4.1-1.2-6.2-2c-2.1-0.8-3.8-2.1-5.2-3.9
		c-1.4-1.8-2.2-4-2.2-6.6c0-4,1.5-7.2,4.4-9.5c3-2.3,6.6-3.5,11-3.5c3.3,0,6.3,0.7,9,2.2c2.7,1.5,4.8,3.6,6.4,6.4l-8.9,4.9
		c-1.3-2.8-3.5-4.1-6.5-4.1c-1.4,0-2.5,0.3-3.4,0.9C12.9,25.9,12.4,26.8,12.4,27.8"/>
	<path class="st0" d="M119.6,16.2h10.5v40.6h-10.5v-4.5c-2.5,3.8-6.6,5.7-12.1,5.7c-4.4,0-8.1-1.5-11-4.5c-2.9-3-4.3-7.1-4.3-12.3
		V16.2h10.5v23.6c0,2.7,0.7,4.8,2.2,6.2c1.5,1.4,3.4,2.2,5.8,2.2c2.7,0,4.9-0.8,6.5-2.5c1.6-1.7,2.4-4.2,2.4-7.6V16.2z"/>
	<path class="st0" d="M147.9,23.2c1-2.6,2.6-4.5,4.8-5.8c2.2-1.3,4.8-1.9,7.5-1.9v11.7c-3.2-0.4-6.1,0.3-8.6,2
		c-2.5,1.7-3.8,4.5-3.8,8.4v19.4h-10.5V16.2h10.5V23.2z"/>
	<path class="st0" d="M183.1,58c-6.1,0-11.2-2.1-15.3-6.2c-4.1-4.1-6.1-9.2-6.1-15.3c0-6.1,2-11.2,6.1-15.3
		c4.1-4.1,9.2-6.2,15.3-6.2c4,0,7.6,0.9,10.8,2.8c3.2,1.9,5.7,4.4,7.4,7.6l-9,5.3c-0.8-1.7-2-3-3.7-4c-1.7-1-3.5-1.5-5.6-1.5
		c-3.1,0-5.7,1-7.8,3.1c-2.1,2.1-3.1,4.8-3.1,8c0,3.2,1,5.8,3.1,7.9c2.1,2.1,4.7,3.1,7.8,3.1c2.1,0,4-0.5,5.6-1.4
		c1.7-0.9,2.9-2.3,3.7-3.9l9.1,5.2c-1.8,3.2-4.3,5.8-7.6,7.7C190.7,57,187.1,58,183.1,58"/>
	<path class="st0" d="M214.4,32.7h20.7c-0.6-2.8-1.8-4.8-3.7-6.2c-1.9-1.4-4-2-6.4-2c-2.8,0-5.1,0.7-7,2.2
		C216.2,28.1,215,30.1,214.4,32.7 M214.5,40.9c1.4,5.1,5.2,7.6,11.5,7.6c4,0,7-1.4,9.1-4.1l8.4,4.9c-4,5.8-9.9,8.7-17.7,8.7
		c-6.7,0-12.1-2-16.2-6.1c-4.1-4.1-6.1-9.2-6.1-15.4c0-6.1,2-11.2,6-15.3c4-4.1,9.2-6.1,15.4-6.1c6,0,10.9,2.1,14.7,6.2
		c3.9,4.1,5.8,9.2,5.8,15.3c0,1.4-0.1,2.8-0.4,4.3H214.5z"/>
	<path class="st0" d="M263.3,44.8c2.1,2.1,4.8,3.2,8.1,3.2c3.2,0,5.9-1.1,8-3.2c2.1-2.1,3.2-4.9,3.2-8.2c0-3.4-1.1-6.1-3.2-8.2
		c-2.1-2.1-4.8-3.2-8-3.2c-3.2,0-5.9,1.1-8.1,3.2c-2.1,2.1-3.2,4.9-3.2,8.2C260.1,39.9,261.2,42.7,263.3,44.8 M282.6,0h10.5v56.9
		h-10.5v-4.8c-3.1,4-7.5,5.9-13.2,5.9c-5.5,0-10.1-2.1-14-6.2c-3.9-4.1-5.8-9.2-5.8-15.2c0-6,1.9-11.1,5.8-15.2
		c3.9-4.1,8.5-6.2,14-6.2c5.7,0,10.1,2,13.2,5.9V0z"/>
	<path class="st1" d="M80.7,19c-4.6-4.6-10.9-7.4-17.9-7.4c-14,0-25.3,11.3-25.3,25.3v20.4c0,2.7,2.2,5,5,5h20.4
		c7,0,13.3-2.8,17.9-7.4c4.6-4.6,7.4-10.9,7.4-17.9C88.1,29.9,85.3,23.6,80.7,19"/>
	<path class="st2" d="M73,47.1c-2.6,2.6-6.2,4.2-10.2,4.2H50.5c-1.2,0-2.2-1-2.2-2.2v-5.2l-2.7-0.8c-0.3-0.1-0.5-0.5-0.2-0.8
		l2.9-2.6v-2.8c0-8,6.5-14.5,14.5-14.5c4,0,7.6,1.6,10.2,4.2c2.6,2.6,4.2,6.2,4.2,10.2C77.3,40.9,75.6,44.5,73,47.1"/>
	<path class="st2" d="M67.1,54.2h-9.2v-7h11.3v5C69.1,53.3,68.2,54.2,67.1,54.2"/>
</g>
</svg>
